G75*
G70*
%OFA0B0*%
%FSLAX24Y24*%
%IPPOS*%
%LPD*%
%AMOC8*
5,1,8,0,0,1.08239X$1,22.5*
%
%ADD10C,0.0740*%
%ADD11C,0.0560*%
%ADD12C,0.0650*%
%ADD13R,0.0650X0.0650*%
%ADD14C,0.0640*%
%ADD15R,0.0740X0.0740*%
%ADD16C,0.0100*%
D10*
X002681Y002681D03*
X003681Y002681D03*
X004681Y002681D03*
X006681Y002681D03*
X007681Y002681D03*
X008681Y002681D03*
X010181Y002681D03*
X011181Y002681D03*
X012181Y002681D03*
X014181Y002681D03*
X015181Y002681D03*
X016181Y002681D03*
X018181Y003181D03*
X018181Y004181D03*
X018181Y005181D03*
X018181Y006181D03*
X018181Y007181D03*
X018181Y008181D03*
X008181Y014181D03*
X007181Y014181D03*
X006181Y014181D03*
X003181Y012681D03*
X003181Y011681D03*
X003181Y010681D03*
D11*
X002681Y008461D02*
X002681Y007901D01*
X003681Y007901D02*
X003681Y008461D01*
X004681Y008461D02*
X004681Y007901D01*
X005681Y007901D02*
X005681Y008461D01*
X006681Y008461D02*
X006681Y007901D01*
X007681Y007901D02*
X007681Y008461D01*
X008681Y008461D02*
X008681Y007901D01*
X009681Y007901D02*
X009681Y008461D01*
X010681Y008461D02*
X010681Y007901D01*
X011681Y007901D02*
X011681Y008461D01*
X012681Y008461D02*
X012681Y007901D01*
X013681Y007901D02*
X013681Y008461D01*
X014681Y008461D02*
X014681Y007901D01*
X015681Y007901D02*
X015681Y008461D01*
X015681Y005461D02*
X015681Y004901D01*
X014681Y004901D02*
X014681Y005461D01*
X013681Y005461D02*
X013681Y004901D01*
X012681Y004901D02*
X012681Y005461D01*
X011681Y005461D02*
X011681Y004901D01*
X010681Y004901D02*
X010681Y005461D01*
X009681Y005461D02*
X009681Y004901D01*
X008681Y004901D02*
X008681Y005461D01*
X007681Y005461D02*
X007681Y004901D01*
X006681Y004901D02*
X006681Y005461D01*
X005681Y005461D02*
X005681Y004901D01*
X004681Y004901D02*
X004681Y005461D01*
X003681Y005461D02*
X003681Y004901D01*
X002681Y004901D02*
X002681Y005461D01*
D12*
X005681Y010697D03*
X005681Y012666D03*
X008181Y012181D03*
D13*
X008181Y011181D03*
D14*
X010361Y010681D02*
X011001Y010681D01*
X011001Y011681D02*
X010361Y011681D01*
X010361Y012681D02*
X011001Y012681D01*
D15*
X009181Y014181D03*
D16*
X002681Y002681D02*
X003181Y002181D01*
X006181Y002181D01*
X010181Y002181D01*
X010181Y002681D01*
X010181Y002181D02*
X015681Y002181D01*
X016181Y002681D01*
X018681Y002681D01*
X018681Y005681D01*
X018181Y006181D01*
X018181Y007181D02*
X016681Y007181D01*
X015681Y008181D01*
X013181Y010681D01*
X010681Y010681D01*
X010681Y011681D02*
X008681Y011681D01*
X008681Y008181D01*
X008681Y006181D01*
X009681Y005181D01*
X011181Y003681D02*
X012181Y002681D01*
X013181Y002681D02*
X014181Y002681D01*
X013181Y002681D02*
X013181Y005681D01*
X010681Y008181D01*
X013681Y008181D02*
X017681Y004181D01*
X018181Y004181D01*
X018181Y005181D02*
X017681Y005181D01*
X014681Y008181D01*
X011181Y003681D02*
X005681Y003681D01*
X004681Y002681D01*
X006181Y002181D02*
X006681Y002681D01*
X006681Y008181D02*
X004181Y010681D01*
X003181Y010681D01*
X003181Y011681D02*
X004181Y012681D01*
X005681Y012681D01*
X005681Y012666D01*
X006681Y013681D02*
X008681Y013681D01*
X009181Y014181D01*
X008681Y012181D02*
X008181Y012181D01*
X008681Y012181D02*
X008681Y011681D01*
X008181Y011181D02*
X006181Y011181D01*
X005681Y010681D01*
X005681Y010697D01*
X006681Y013681D02*
X006181Y014181D01*
M02*
