%
M48
M72
T01C0.0276
T02C0.0315
T03C0.0320
T04C0.0400
T05C0.1102
T06C0.1300
%
T01
X5681Y10697
X5681Y12666
X8181Y12181
X8181Y11181
T02
X3181Y10681
X3181Y11681
X3181Y12681
T03
X2681Y8181
X3681Y8181
X4681Y8181
X5681Y8181
X6681Y8181
X7681Y8181
X8681Y8181
X9681Y8181
X10681Y8181
X11681Y8181
X12681Y8181
X13681Y8181
X14681Y8181
X15681Y8181
X15681Y5181
X14681Y5181
X13681Y5181
X12681Y5181
X11681Y5181
X10681Y5181
X9681Y5181
X8681Y5181
X7681Y5181
X6681Y5181
X5681Y5181
X4681Y5181
X3681Y5181
X2681Y5181
X6681Y2681
X7681Y2681
X8681Y2681
X10181Y2681
X11181Y2681
X12181Y2681
T04
X14181Y2681
X15181Y2681
X16181Y2681
X18181Y3181
X18181Y4181
X18181Y5181
X18181Y6181
X18181Y7181
X18181Y8181
X10681Y10681
X10681Y11681
X10681Y12681
X9181Y14181
X8181Y14181
X7181Y14181
X6181Y14181
X4681Y2681
X3681Y2681
X2681Y2681
T05
X1181Y1181
X1181Y14181
X19181Y14181
X19181Y1181
T06
X16581Y11681
M30
